<?xml version="1.0"?>
<svg xmlns="http://www.w3.org/2000/svg" xmlns:xlink="http://www.w3.org/1999/xlink" xmlns:svgjs="http://svgjs.com/svgjs" version="1.1" width="512" height="512" x="0" y="0" viewBox="0 0 480 480" style="enable-background:new 0 0 512 512" xml:space="preserve" class=""><g>
<g xmlns="http://www.w3.org/2000/svg">
	<g>
		<path d="M240,0C107.452,0,0,107.452,0,240s107.452,240,240,240s240-107.452,240-240C479.85,107.514,372.486,0.15,240,0z     M340.689,40H139.311C202.623,8,277.377,8,340.689,40z M112.467,56h255.065c19.14,13.308,36.103,29.5,50.288,48H62.179    C76.364,85.5,93.328,69.308,112.467,56z M51,120h378c9.576,15.022,17.318,31.137,23.061,48H27.939    C33.682,151.137,41.424,135.022,51,120z M23.088,184h433.824c4.031,15.703,6.339,31.797,6.885,48H16.203    C16.749,215.797,19.058,199.703,23.088,184z M139.311,440h201.378C277.377,472,202.623,472,139.311,440z M367.533,424H112.467    c-19.14-13.308-36.103-29.5-50.288-48h355.641C403.636,394.5,386.672,410.692,367.533,424z M429,360H51    c-9.576-15.022-17.318-31.137-23.061-48h424.121C446.318,328.863,438.576,344.978,429,360z M456.912,296H23.088    c-4.031-15.703-6.339-31.798-6.885-48h447.594C463.251,264.202,460.942,280.297,456.912,296z" fill="#ffffff" data-original="#000000" style="" class=""/>
	</g>
</g>
<g xmlns="http://www.w3.org/2000/svg">
</g>
<g xmlns="http://www.w3.org/2000/svg">
</g>
<g xmlns="http://www.w3.org/2000/svg">
</g>
<g xmlns="http://www.w3.org/2000/svg">
</g>
<g xmlns="http://www.w3.org/2000/svg">
</g>
<g xmlns="http://www.w3.org/2000/svg">
</g>
<g xmlns="http://www.w3.org/2000/svg">
</g>
<g xmlns="http://www.w3.org/2000/svg">
</g>
<g xmlns="http://www.w3.org/2000/svg">
</g>
<g xmlns="http://www.w3.org/2000/svg">
</g>
<g xmlns="http://www.w3.org/2000/svg">
</g>
<g xmlns="http://www.w3.org/2000/svg">
</g>
<g xmlns="http://www.w3.org/2000/svg">
</g>
<g xmlns="http://www.w3.org/2000/svg">
</g>
<g xmlns="http://www.w3.org/2000/svg">
</g>
</g></svg>
