<?xml version="1.0"?>
<svg xmlns="http://www.w3.org/2000/svg" xmlns:xlink="http://www.w3.org/1999/xlink" xmlns:svgjs="http://svgjs.com/svgjs" version="1.1" width="512" height="512" x="0" y="0" viewBox="0 0 480 480" style="enable-background:new 0 0 512 512" xml:space="preserve" class=""><g>
<g xmlns="http://www.w3.org/2000/svg">
	<g>
		<path d="M240.018,0L240.018,0l-0.009,0h-0.004c-132.548,0-240,107.452-240,240s107.452,240,240,240h0.004l0.009,0    c132.548-0.012,239.99-107.474,239.977-240.022C479.983,107.447,372.549,0.013,240.018,0z M16.005,240    C16.112,148.872,71.34,66.865,155.742,32.506C105.725,74.123,72.009,151.519,72.009,240s33.716,165.876,83.733,207.493    C71.34,413.134,16.112,331.128,16.005,240z M88.009,240c0-103.674,48.048-191.091,113.046-216.511    c-31.267,41.055-49.05,129.843-49.05,216.511s17.783,175.456,49.05,216.511C136.057,431.091,88.009,343.674,88.009,240z     M232.009,462.291c-31.73-12.905-64.004-100.549-64.004-222.291s32.273-209.386,64.004-222.291V462.291z M248.009,462.288V17.712    C279.737,30.628,312.005,118.268,312.005,240S279.737,449.372,248.009,462.288z M278.952,456.516    c31.269-41.053,49.053-129.844,49.053-216.516S310.221,64.537,278.952,23.484C343.955,48.898,392.009,136.319,392.009,240    S343.955,431.102,278.952,456.516z M324.283,447.487c50.013-41.618,83.726-119.01,83.726-207.487    c0-88.477-33.713-165.87-83.727-207.488c114.59,46.506,169.782,177.103,123.276,291.694    C424.807,380.264,380.34,424.731,324.283,447.487z" fill="#ffffff" data-original="#000000" style="" class=""/>
	</g>
</g>
<g xmlns="http://www.w3.org/2000/svg">
</g>
<g xmlns="http://www.w3.org/2000/svg">
</g>
<g xmlns="http://www.w3.org/2000/svg">
</g>
<g xmlns="http://www.w3.org/2000/svg">
</g>
<g xmlns="http://www.w3.org/2000/svg">
</g>
<g xmlns="http://www.w3.org/2000/svg">
</g>
<g xmlns="http://www.w3.org/2000/svg">
</g>
<g xmlns="http://www.w3.org/2000/svg">
</g>
<g xmlns="http://www.w3.org/2000/svg">
</g>
<g xmlns="http://www.w3.org/2000/svg">
</g>
<g xmlns="http://www.w3.org/2000/svg">
</g>
<g xmlns="http://www.w3.org/2000/svg">
</g>
<g xmlns="http://www.w3.org/2000/svg">
</g>
<g xmlns="http://www.w3.org/2000/svg">
</g>
<g xmlns="http://www.w3.org/2000/svg">
</g>
</g></svg>
